{
  "asset": {
    "version": "2.0",
    "generator": "THREE.GLTFExporter"
  },
  "scenes": [
    {
      "name": "Scene",
      "nodes": [
        1
      ]
    }
  ],
  "scene": 0,
  "nodes": [
    {
      "name": "ObtuseGoldenRhombohedron",
      "mesh": 0
    },
    {
      "matrix": [
        0.9624861407474377,
        0.23149162784550514,
        -0.14153464277886801,
        0,
        -0.2666865865395924,
        0.9032092164938245,
        -0.3362906121206362,
        0,
        0.04998693258206727,
        0.3614204441893815,
        0.9310620651132695,
        0,
        0,
        0,
        0,
        1
      ],
      "name": "ObtuseGoldenRhombohedron.obj",
      "children": [
        0
      ]
    }
  ],
  "bufferViews": [
    {
      "buffer": 0,
      "byteOffset": 0,
      "byteLength": 432,
      "target": 34962,
      "byteStride": 12
    },
    {
      "buffer": 0,
      "byteOffset": 432,
      "byteLength": 432,
      "target": 34962,
      "byteStride": 12
    },
    {
      "buffer": 0,
      "byteOffset": 864,
      "byteLength": 288,
      "target": 34962,
      "byteStride": 8
    }
  ],
  "buffers": [
    {
      "byteLength": 1152,
      "uri": "data:application/octet-stream;base64,"
    }
  ],
  "accessors": [
    {
      "bufferView": 0,
      "componentType": 5126,
      "count": 36,
      "max": [
        0.9819999933242798,
        0.8510000109672546,
        0.2809999883174896
      ],
      "min": [
        -0.9819999933242798,
        -0.8510000109672546,
        -0.2809999883174896
      ],
      "type": "VEC3"
    },
    {
      "bufferView": 1,
      "componentType": 5126,
      "count": 36,
      "max": [
        0.3568199872970581,
        0.3090200126171112,
        0.9341700077056885
      ],
      "min": [
        -0.3568199872970581,
        -0.3090200126171112,
        -0.9341700077056885
      ],
      "type": "VEC3"
    },
    {
      "bufferView": 2,
      "componentType": 5126,
      "count": 36,
      "max": [
        1,
        1
      ],
      "min": [
        0,
        0
      ],
      "type": "VEC2"
    }
  ],
  "materials": [
    {
      "pbrMetallicRoughness": {
        "metallicFactor": 0.5,
        "roughnessFactor": 0.5
      },
      "name": "Wood_f9d00b1c-a861-4831-bd3a-870309e55efe"
    }
  ],
  "meshes": [
    {
      "primitives": [
        {
          "mode": 4,
          "attributes": {
            "POSITION": 0,
            "NORMAL": 1,
            "TEXCOORD_0": 2
          },
          "material": 0
        }
      ]
    }
  ]
}